<?xml version="1.0" encoding="utf-8"?>
<!-- Generator: Adobe Illustrator 23.0.3, SVG Export Plug-In . SVG Version: 6.00 Build 0)  -->
<svg version="1.1" id="Camada_1" xmlns="http://www.w3.org/2000/svg" xmlns:xlink="http://www.w3.org/1999/xlink" x="0px" y="0px"
	 viewBox="0 0 80 80" style="enable-background:new 0 0 80 80;" xml:space="preserve">
<style type="text/css">
	.st0{fill:#001F77;}
	.st1{fill:#BEBEBE;}
	.st2{fill:#6282AB;}
	.st3{fill:#FFFFFF;}
	.st4{fill:#E3BD65;}
	.st5{fill:#3C5DA1;}
	.st6{fill:#626266;}
	.st7{fill:#444242;}
	.st8{fill:#6D8DC3;}
</style>
<circle class="st0" cx="39.8" cy="40.3" r="36"/>
<g>
	<path class="st1" d="M41.8,24.7l-3.2-3.5c-1-1.1-1-2.9,0.2-4l0.2-0.1c1.1-1,2.9-1,4,0.2l3.2,3.5c1,1.1,1,2.9-0.2,4l-0.2,0.1
		C44.6,25.9,42.8,25.8,41.8,24.7z"/>
	<path class="st2" d="M16,62.3c-1.4,0-2.5-1.1-2.5-2.5v-5.5c0-0.3,0-3.4,1.6-5c0.6-0.6,1.3-0.9,2.2-0.9c0.4,0,0.7,0.3,0.8,0.6
		c0.2-0.2,0.3-0.3,0.3-0.4l1.2,1.3l0,0c0,0-1.1,1.2-1.1,4.6v5.4C18.5,61.2,17.4,62.3,16,62.3z M17.6,50.1c-0.1,0-0.2,0-0.2,0
		c-0.4,0-0.7,0.1-1,0.4c-0.9,0.9-1.1,3.1-1.1,3.8v5.5c0,0.4,0.3,0.8,0.8,0.8c0.4,0,0.8-0.3,0.8-0.8v-5.4
		C16.8,52.4,17.2,51,17.6,50.1z"/>
	<path class="st1" d="M50.8,47.1l16.8,0.1v3.5l-16.8-0.1V47.1z"/>
	<path class="st3" d="M46.7,35.9v-3.6c0-8.9-7.1-16.3-16-16.4c-8.9,0-16.2,7.1-16.2,16.1l-0.1,13.8c0,2.5,2,4.6,4.6,4.6l31.8,0.1
		v-6.7c0-1.2-0.5-2.4-1.3-3.3L48.1,39C47.2,38.3,46.7,37.1,46.7,35.9z"/>
	<path class="st4" d="M39.6,32.2c0,5-4.1,9.1-9.1,9.1s-9.1-4.1-9.1-9.1s4.1-9.1,9.1-9.1C35.6,23.1,39.7,27.2,39.6,32.2z"/>
	<path class="st5" d="M38.2,32.2c0,4.2-3.5,7.7-7.7,7.7s-7.7-3.5-7.7-7.7s3.5-7.7,7.7-7.7C34.8,24.5,38.2,27.9,38.2,32.2z"/>
	<path class="st6" d="M35.1,32.2c0,2.5-2.1,4.6-4.6,4.6s-4.6-2.1-4.6-4.6s2.1-4.6,4.6-4.6C33.1,27.5,35.2,29.6,35.1,32.2z"/>
	<path class="st7" d="M33.1,28.3c0.5,0.7,0.7,1.6,0.7,2.5c0,2.5-2.1,4.6-4.6,4.6c-0.9,0-1.8-0.3-2.5-0.8c0.8,1.3,2.2,2.1,3.9,2.1
		c2.5,0,4.6-2,4.6-4.6C35.1,30.5,34.3,29.1,33.1,28.3z"/>
	<path class="st8" d="M49.5,40.6l-1.4-1.5c-0.9-0.9-1.3-2-1.3-3.3v-3.6c0-8.9-7.1-16.3-16-16.4c-0.4,0-0.9,0-1.3,0
		c8.3,0.7,14.8,7.8,14.8,16.3v4.8c0,1.2,0.5,2.4,1.3,3.3l1.4,1.5c0.9,0.9,1.3,2,1.3,3.3v5.5h2.5v-6.7C50.8,42.6,50.3,41.5,49.5,40.6
		z"/>
	<path class="st1" d="M70.4,50.7h-2.8v-6.2c0-0.4,0.3-0.7,0.7-0.7h2.1c0.4,0,0.7,0.3,0.7,0.7v5.6C71,50.4,70.7,50.7,70.4,50.7z"/>
	<path class="st8" d="M69.6,43.8v6.9h0.8c0.4,0,0.7-0.3,0.7-0.7v-5.6c0-0.4-0.3-0.7-0.7-0.7L69.6,43.8z"/>
	<path class="st7" d="M40.4,44.5L40.4,44.5c-1,0-1.9-0.8-1.9-1.9l0,0c0-1,0.8-1.9,1.9-1.9l0,0c1,0,1.9,0.8,1.9,1.9l0,0
		C42.3,43.6,41.5,44.5,40.4,44.5z"/>
	<path class="st6" d="M40,43.7L40,43.7c-0.8,0-1.5-0.7-1.5-1.5l0,0c0-0.8,0.7-1.5,1.5-1.5l0,0c0.8,0,1.5,0.7,1.5,1.5l0,0
		C41.5,43,40.9,43.7,40,43.7z"/>
	<path class="st8" d="M69.5,47.2v1.5c0,0.4-0.4,0.7-0.8,0.7l-17.9-0.1v1.3l20.3,0.1v-3.5H69.5z"/>
</g>
</svg>
